<?xml version="1.0" encoding="UTF-8"?>
<svg viewBox="0 0 550 550" xmlns="http://www.w3.org/2000/svg" xmlns:xlink="http://www.w3.org/1999/xlink">
<defs>
<symbol id="a" data-name="ingresso" viewBox="0 0 234 326">
<g opacity=".15" style="mix-blend-mode:multiply">
<path d="M229.68,57.22V16.64A6,6,0,0,0,227.45,12l-2.08-1.69a1,1,0,0,0-1.26,0l-3.68,3a1,1,0,0,1-1.26,0l-3.68-3a1,1,0,0,0-1.26,0l-3.68,3a1,1,0,0,1-1.26,0l-3.68-3a1,1,0,0,0-1.26,0l-3.67,3a1,1,0,0,1-1.26,0l-3.68-3a1,1,0,0,0-1.26,0l-3.67,3a1,1,0,0,1-1.26,0l-3.68-3a1,1,0,0,0-1.25,0l-3.68,3a1,1,0,0,1-1.26,0l-3.68-3a1,1,0,0,0-1.26,0l-3.68,3a1,1,0,0,1-1.26,0l-3.67-3a1,1,0,0,0-1.26,0l-3.68,3a1,1,0,0,1-1.26,0l-3.68-3a1,1,0,0,0-1.26,0l-3.68,3a1,1,0,0,1-1.26,0l-3.67-3a1,1,0,0,0-1.26,0l-3.68,3a1,1,0,0,1-1.26,0l-3.68-3a1,1,0,0,0-1.26,0l-3.68,3a1,1,0,0,1-1.26,0l-3.68-3a1,1,0,0,0-1.26,0l-3.68,3a1,1,0,0,1-1.26,0l-3.68-3a1,1,0,0,0-1.26,0l-3.68,3a1,1,0,0,1-1.26,0l-3.68-3a1,1,0,0,0-1.26,0l-3.68,3a1,1,0,0,1-1.26,0l-3.68-3a1,1,0,0,0-1.26,0l-3.68,3a1,1,0,0,1-1.26,0l-3.68-3a1,1,0,0,0-1.26,0l-3.68,3a1,1,0,0,1-1.26,0l-3.69-3a1,1,0,0,0-1.25,0l-3.69,3a1,1,0,0,1-1.26,0l-3.67-3a1,1,0,0,0-1.26,0l-3.69,3a1,1,0,0,1-1.25,0l-3.68-3a1,1,0,0,0-1.26,0l-3.69,3a1,1,0,0,1-1.25,0l-3.69-3a1,1,0,0,0-1.26,0l-3.68,3a1,1,0,0,1-1.26,0l-3.69-3a1,1,0,0,0-1.25,0l-3.69,3a1,1,0,0,1-1.26,0l-3.68-3a1,1,0,0,0-1.26,0l-3.69,3a1,1,0,0,1-1.26,0l-3.69-3a1,1,0,0,0-1.25,0L14.55,12a6,6,0,0,0-2.23,4.66V57.22a5.93,5.93,0,0,0,3.78,5.57,11.35,11.35,0,0,1,0,21.26,5.9,5.9,0,0,0-3.78,5.56v228a6,6,0,0,0,2.23,4.67L16.63,324a1,1,0,0,0,1.26,0l3.68-3a1,1,0,0,1,1.26,0l3.68,3a1,1,0,0,0,1.26,0l3.68-3a1,1,0,0,1,1.26,0l3.68,3a1,1,0,0,0,1.26,0l3.67-3a1,1,0,0,1,1.26,0l3.68,3a1,1,0,0,0,1.26,0l3.67-3a1,1,0,0,1,1.26,0l3.68,3a1,1,0,0,0,1.25,0l3.68-3a1,1,0,0,1,1.26,0L66,324a1,1,0,0,0,1.26,0l3.68-3a1,1,0,0,1,1.26,0l3.67,3a1,1,0,0,0,1.26,0l3.68-3a1,1,0,0,1,1.26,0l3.68,3A1,1,0,0,0,87,324l3.68-3A1,1,0,0,1,92,321l3.67,3a1,1,0,0,0,1.26,0l3.68-3a1,1,0,0,1,1.26,0l3.68,3a1,1,0,0,0,1.26,0l3.68-3a1,1,0,0,1,1.26,0l3.68,3a1,1,0,0,0,1.26,0l3.68-3a1,1,0,0,1,1.26,0l3.68,3a1,1,0,0,0,1.26,0l3.68-3a1,1,0,0,1,1.26,0l3.68,3a1,1,0,0,0,1.26,0l3.68-3a1,1,0,0,1,1.26,0l3.68,3a1,1,0,0,0,1.26,0l3.68-3a1,1,0,0,1,1.26,0l3.68,3a1,1,0,0,0,1.26,0l3.68-3a1,1,0,0,1,1.26,0l3.69,3a1,1,0,0,0,1.25,0l3.69-3a1,1,0,0,1,1.26,0l3.67,3a1,1,0,0,0,1.26,0l3.69-3a1,1,0,0,1,1.25,0l3.68,3a1,1,0,0,0,1.26,0l3.69-3a1,1,0,0,1,1.25,0l3.69,3a1,1,0,0,0,1.26,0l3.68-3a1,1,0,0,1,1.26,0l3.69,3a1,1,0,0,0,1.25,0l3.69-3a1,1,0,0,1,1.26,0l3.68,3a1,1,0,0,0,1.26,0l3.69-3a1,1,0,0,1,1.26,0l3.69,3a1,1,0,0,0,1.25,0l2.1-1.69a6,6,0,0,0,2.23-4.67v-228a5.9,5.9,0,0,0-3.78-5.56,11.35,11.35,0,0,1,0-21.26A5.93,5.93,0,0,0,229.68,57.22ZM31.81,73.71a1.52,1.52,0,0,1-.09.28.94.94,0,0,1-.14.26,1.3,1.3,0,0,1-.18.23,2,2,0,0,1-.23.18,1.61,1.61,0,0,1-.54.23l-.29,0a1.49,1.49,0,0,1-1.5-1.5,1.5,1.5,0,0,1,0-.29c0-.09.05-.19.08-.28a2.15,2.15,0,0,1,.14-.26,2.11,2.11,0,0,1,.19-.23,1,1,0,0,1,.23-.18,1.23,1.23,0,0,1,.25-.14,1.52,1.52,0,0,1,.28-.09,1.54,1.54,0,0,1,1.36.41,1.5,1.5,0,0,1,.41,1.36Zm5.24,1.2a1.5,1.5,0,1,1,1.5-1.49A1.5,1.5,0,0,1,37.05,74.91Zm6.72,0a1.5,1.5,0,1,1,1.5-1.49A1.5,1.5,0,0,1,43.77,74.91Zm6.72,0a1.5,1.5,0,1,1,0-3,1.5,1.5,0,1,1,0,3Zm6.71,0a1.5,1.5,0,1,1,1.5-1.49A1.5,1.5,0,0,1,57.2,74.91Zm6.72,0a1.5,1.5,0,1,1,1.5-1.49A1.5,1.5,0,0,1,63.92,74.91Zm6.71,0a1.5,1.5,0,1,1,1.5-1.49A1.5,1.5,0,0,1,70.63,74.91Zm6.72,0a1.5,1.5,0,1,1,1.5-1.49A1.5,1.5,0,0,1,77.35,74.91Zm6.72,0a1.5,1.5,0,1,1,0-3,1.5,1.5,0,1,1,0,3Zm6.71,0a1.5,1.5,0,1,1,1.5-1.49A1.5,1.5,0,0,1,90.78,74.91Zm6.72,0A1.5,1.5,0,1,1,99,73.42,1.5,1.5,0,0,1,97.5,74.91Zm6.71,0a1.5,1.5,0,1,1,1.51-1.49A1.5,1.5,0,0,1,104.21,74.91Zm6.72,0a1.5,1.5,0,1,1,1.5-1.49A1.5,1.5,0,0,1,110.93,74.91Zm6.72,0a1.5,1.5,0,1,1,0-3,1.5,1.5,0,1,1,0,3Zm6.71,0a1.5,1.5,0,1,1,1.5-1.49A1.5,1.5,0,0,1,124.36,74.91Zm6.72,0a1.5,1.5,0,1,1,1.5-1.49A1.5,1.5,0,0,1,131.08,74.91Zm6.71,0a1.5,1.5,0,1,1,1.5-1.49A1.49,1.49,0,0,1,137.79,74.91Zm6.72,0a1.5,1.5,0,1,1,1.5-1.49A1.5,1.5,0,0,1,144.51,74.91Zm6.72,0a1.5,1.5,0,1,1,0-3,1.5,1.5,0,1,1,0,3Zm6.71,0a1.5,1.5,0,1,1,1.5-1.49A1.5,1.5,0,0,1,157.94,74.91Zm6.72,0a1.5,1.5,0,1,1,1.5-1.49A1.5,1.5,0,0,1,164.66,74.91Zm6.71,0a1.5,1.5,0,1,1,1.51-1.49A1.5,1.5,0,0,1,171.37,74.91Zm6.72,0a1.5,1.5,0,1,1,1.5-1.49A1.5,1.5,0,0,1,178.09,74.91Zm6.72,0a1.5,1.5,0,1,1,0-3,1.5,1.5,0,1,1,0,3Zm6.71,0a1.5,1.5,0,1,1,1.5-1.49A1.5,1.5,0,0,1,191.52,74.91Zm6.72,0a1.5,1.5,0,1,1,1.5-1.49A1.5,1.5,0,0,1,198.24,74.91Zm6.72,0a1.5,1.5,0,1,1,1.49-1.49A1.5,1.5,0,0,1,205,74.91Zm7.77-.43a1.5,1.5,0,0,1-2.56-1.07,1.52,1.52,0,0,1,.44-1.06,1.57,1.57,0,0,1,2.12,0,1.51,1.51,0,0,1,0,2.13Z"/>
<path d="M229.68,57.22V16.64A6,6,0,0,0,227.45,12l-2.08-1.69a1,1,0,0,0-1.26,0l-3.68,3a1,1,0,0,1-1.26,0l-3.68-3a1,1,0,0,0-1.26,0l-3.68,3a1,1,0,0,1-1.26,0l-3.68-3a1,1,0,0,0-1.26,0l-3.67,3a1,1,0,0,1-1.26,0l-3.68-3a1,1,0,0,0-1.26,0l-3.67,3a1,1,0,0,1-1.26,0l-3.68-3a1,1,0,0,0-1.25,0l-3.68,3a1,1,0,0,1-1.26,0l-3.68-3a1,1,0,0,0-1.26,0l-3.68,3a1,1,0,0,1-1.26,0l-3.67-3a1,1,0,0,0-1.26,0l-3.68,3a1,1,0,0,1-1.26,0l-3.68-3a1,1,0,0,0-1.26,0l-3.68,3a1,1,0,0,1-1.26,0l-3.67-3a1,1,0,0,0-1.26,0l-3.68,3a1,1,0,0,1-1.26,0l-3.68-3a1,1,0,0,0-1.26,0l-3.68,3a1,1,0,0,1-1.26,0l-3.68-3a1,1,0,0,0-1.26,0l-3.68,3a1,1,0,0,1-1.26,0l-3.68-3a1,1,0,0,0-1.26,0l-3.68,3a1,1,0,0,1-1.26,0l-3.68-3a1,1,0,0,0-1.26,0l-3.68,3a1,1,0,0,1-1.26,0l-3.68-3a1,1,0,0,0-1.26,0l-3.68,3a1,1,0,0,1-1.26,0l-3.68-3a1,1,0,0,0-1.26,0l-3.68,3a1,1,0,0,1-1.26,0l-3.69-3a1,1,0,0,0-1.25,0l-3.69,3a1,1,0,0,1-1.26,0l-3.67-3a1,1,0,0,0-1.26,0l-3.69,3a1,1,0,0,1-1.25,0l-3.68-3a1,1,0,0,0-1.26,0l-3.69,3a1,1,0,0,1-1.25,0l-3.69-3a1,1,0,0,0-1.26,0l-3.68,3a1,1,0,0,1-1.26,0l-3.69-3a1,1,0,0,0-1.25,0l-3.69,3a1,1,0,0,1-1.26,0l-3.68-3a1,1,0,0,0-1.26,0l-3.69,3a1,1,0,0,1-1.26,0l-3.69-3a1,1,0,0,0-1.25,0L14.55,12a6,6,0,0,0-2.23,4.66V57.22a5.93,5.93,0,0,0,3.78,5.57,11.35,11.35,0,0,1,0,21.26,5.9,5.9,0,0,0-3.78,5.56v228a6,6,0,0,0,2.23,4.67L16.63,324a1,1,0,0,0,1.26,0l3.68-3a1,1,0,0,1,1.26,0l3.68,3a1,1,0,0,0,1.26,0l3.68-3a1,1,0,0,1,1.26,0l3.68,3a1,1,0,0,0,1.26,0l3.67-3a1,1,0,0,1,1.26,0l3.68,3a1,1,0,0,0,1.26,0l3.67-3a1,1,0,0,1,1.26,0l3.68,3a1,1,0,0,0,1.25,0l3.68-3a1,1,0,0,1,1.26,0L66,324a1,1,0,0,0,1.26,0l3.68-3a1,1,0,0,1,1.26,0l3.67,3a1,1,0,0,0,1.26,0l3.68-3a1,1,0,0,1,1.26,0l3.68,3A1,1,0,0,0,87,324l3.68-3A1,1,0,0,1,92,321l3.67,3a1,1,0,0,0,1.26,0l3.68-3a1,1,0,0,1,1.26,0l3.68,3a1,1,0,0,0,1.26,0l3.68-3a1,1,0,0,1,1.26,0l3.68,3a1,1,0,0,0,1.26,0l3.68-3a1,1,0,0,1,1.26,0l3.68,3a1,1,0,0,0,1.26,0l3.68-3a1,1,0,0,1,1.26,0l3.68,3a1,1,0,0,0,1.26,0l3.68-3a1,1,0,0,1,1.26,0l3.68,3a1,1,0,0,0,1.26,0l3.68-3a1,1,0,0,1,1.26,0l3.68,3a1,1,0,0,0,1.26,0l3.68-3a1,1,0,0,1,1.26,0l3.69,3a1,1,0,0,0,1.25,0l3.69-3a1,1,0,0,1,1.26,0l3.67,3a1,1,0,0,0,1.26,0l3.69-3a1,1,0,0,1,1.25,0l3.68,3a1,1,0,0,0,1.26,0l3.69-3a1,1,0,0,1,1.25,0l3.69,3a1,1,0,0,0,1.26,0l3.68-3a1,1,0,0,1,1.26,0l3.69,3a1,1,0,0,0,1.25,0l3.69-3a1,1,0,0,1,1.26,0l3.68,3a1,1,0,0,0,1.26,0l3.69-3a1,1,0,0,1,1.26,0l3.69,3a1,1,0,0,0,1.25,0l2.1-1.69a6,6,0,0,0,2.23-4.67v-228a5.9,5.9,0,0,0-3.78-5.56,11.35,11.35,0,0,1,0-21.26A5.93,5.93,0,0,0,229.68,57.22ZM31.81,73.71a1.52,1.52,0,0,1-.09.28.94.94,0,0,1-.14.26,1.3,1.3,0,0,1-.18.23,2,2,0,0,1-.23.18,1.61,1.61,0,0,1-.54.23l-.29,0a1.49,1.49,0,0,1-1.5-1.5,1.5,1.5,0,0,1,0-.29c0-.09.05-.19.08-.28a2.15,2.15,0,0,1,.14-.26,2.11,2.11,0,0,1,.19-.23,1,1,0,0,1,.23-.18,1.23,1.23,0,0,1,.25-.14,1.52,1.52,0,0,1,.28-.09,1.54,1.54,0,0,1,1.36.41,1.5,1.5,0,0,1,.41,1.36Zm5.24,1.2a1.5,1.5,0,1,1,1.5-1.49A1.5,1.5,0,0,1,37.05,74.91Zm6.72,0a1.5,1.5,0,1,1,1.5-1.49A1.5,1.5,0,0,1,43.77,74.91Zm6.72,0a1.5,1.5,0,1,1,0-3,1.5,1.5,0,1,1,0,3Zm6.71,0a1.5,1.5,0,1,1,1.5-1.49A1.5,1.5,0,0,1,57.2,74.91Zm6.72,0a1.5,1.5,0,1,1,1.5-1.49A1.5,1.5,0,0,1,63.92,74.91Zm6.71,0a1.5,1.5,0,1,1,1.5-1.49A1.5,1.5,0,0,1,70.63,74.91Zm6.72,0a1.5,1.5,0,1,1,1.5-1.49A1.5,1.5,0,0,1,77.35,74.91Zm6.72,0a1.5,1.5,0,1,1,0-3,1.5,1.5,0,1,1,0,3Zm6.71,0a1.5,1.5,0,1,1,1.5-1.49A1.5,1.5,0,0,1,90.78,74.91Zm6.72,0A1.5,1.5,0,1,1,99,73.42,1.5,1.5,0,0,1,97.5,74.91Zm6.71,0a1.5,1.5,0,1,1,1.51-1.49A1.5,1.5,0,0,1,104.21,74.91Zm6.72,0a1.5,1.5,0,1,1,1.5-1.49A1.5,1.5,0,0,1,110.93,74.91Zm6.72,0a1.5,1.5,0,1,1,0-3,1.5,1.5,0,1,1,0,3Zm6.71,0a1.5,1.5,0,1,1,1.5-1.49A1.5,1.5,0,0,1,124.36,74.91Zm6.72,0a1.5,1.5,0,1,1,1.5-1.49A1.5,1.5,0,0,1,131.08,74.91Zm6.71,0a1.5,1.5,0,1,1,1.5-1.49A1.49,1.49,0,0,1,137.79,74.91Zm6.72,0a1.5,1.5,0,1,1,1.5-1.49A1.5,1.5,0,0,1,144.51,74.91Zm6.72,0a1.5,1.5,0,1,1,0-3,1.5,1.5,0,1,1,0,3Zm6.71,0a1.5,1.5,0,1,1,1.5-1.49A1.5,1.5,0,0,1,157.94,74.91Zm6.72,0a1.5,1.5,0,1,1,1.5-1.49A1.5,1.5,0,0,1,164.66,74.91Zm6.71,0a1.5,1.5,0,1,1,1.51-1.49A1.5,1.5,0,0,1,171.37,74.91Zm6.72,0a1.5,1.5,0,1,1,1.5-1.49A1.5,1.5,0,0,1,178.09,74.91Zm6.72,0a1.5,1.5,0,1,1,0-3,1.5,1.5,0,1,1,0,3Zm6.71,0a1.5,1.5,0,1,1,1.5-1.49A1.5,1.5,0,0,1,191.52,74.91Zm6.72,0a1.5,1.5,0,1,1,1.5-1.49A1.5,1.5,0,0,1,198.24,74.91Zm6.72,0a1.5,1.5,0,1,1,1.49-1.49A1.5,1.5,0,0,1,205,74.91Zm7.77-.43a1.5,1.5,0,0,1-2.56-1.07,1.52,1.52,0,0,1,.44-1.06,1.57,1.57,0,0,1,2.12,0,1.51,1.51,0,0,1,0,2.13Z" fill="none" stroke="#000" stroke-miterlimit="10"/>
</g>
<path d="M225.68,53.22V12.64A6,6,0,0,0,223.45,8l-2.08-1.69a1,1,0,0,0-1.26,0l-3.68,3a1,1,0,0,1-1.26,0l-3.68-3a1,1,0,0,0-1.26,0l-3.68,3a1,1,0,0,1-1.26,0l-3.68-3a1,1,0,0,0-1.26,0l-3.67,3a1,1,0,0,1-1.26,0l-3.68-3a1,1,0,0,0-1.26,0l-3.67,3a1,1,0,0,1-1.26,0l-3.68-3a1,1,0,0,0-1.25,0l-3.68,3a1,1,0,0,1-1.26,0l-3.68-3a1,1,0,0,0-1.26,0l-3.68,3a1,1,0,0,1-1.26,0l-3.67-3a1,1,0,0,0-1.26,0l-3.68,3a1,1,0,0,1-1.26,0l-3.68-3a1,1,0,0,0-1.26,0l-3.68,3a1,1,0,0,1-1.26,0l-3.67-3a1,1,0,0,0-1.26,0l-3.68,3a1,1,0,0,1-1.26,0l-3.68-3a1,1,0,0,0-1.26,0l-3.68,3a1,1,0,0,1-1.26,0l-3.68-3a1,1,0,0,0-1.26,0l-3.68,3a1,1,0,0,1-1.26,0l-3.68-3a1,1,0,0,0-1.26,0l-3.68,3a1,1,0,0,1-1.26,0l-3.68-3a1,1,0,0,0-1.26,0l-3.68,3a1,1,0,0,1-1.26,0L93,6.29a1,1,0,0,0-1.26,0L88,9.27a1,1,0,0,1-1.26,0l-3.68-3a1,1,0,0,0-1.26,0l-3.68,3a1,1,0,0,1-1.26,0l-3.69-3a1,1,0,0,0-1.25,0l-3.69,3a1,1,0,0,1-1.26,0l-3.67-3a1,1,0,0,0-1.26,0l-3.69,3a1,1,0,0,1-1.25,0l-3.68-3a1,1,0,0,0-1.26,0l-3.69,3a1,1,0,0,1-1.25,0l-3.69-3a1,1,0,0,0-1.26,0l-3.68,3a1,1,0,0,1-1.26,0l-3.69-3a1,1,0,0,0-1.25,0l-3.69,3a1,1,0,0,1-1.26,0l-3.68-3a1,1,0,0,0-1.26,0l-3.69,3a1,1,0,0,1-1.26,0l-3.69-3a1,1,0,0,0-1.25,0L10.55,8a6,6,0,0,0-2.23,4.66V53.22a5.93,5.93,0,0,0,3.78,5.57,11.35,11.35,0,0,1,0,21.26,5.9,5.9,0,0,0-3.78,5.56v228a6,6,0,0,0,2.23,4.67L12.63,320a1,1,0,0,0,1.26,0l3.68-3a1,1,0,0,1,1.26,0l3.68,3a1,1,0,0,0,1.26,0l3.68-3a1,1,0,0,1,1.26,0l3.68,3a1,1,0,0,0,1.26,0l3.67-3a1,1,0,0,1,1.26,0l3.68,3a1,1,0,0,0,1.26,0l3.67-3a1,1,0,0,1,1.26,0l3.68,3a1,1,0,0,0,1.25,0l3.68-3a1,1,0,0,1,1.26,0L62,320a1,1,0,0,0,1.26,0l3.68-3a1,1,0,0,1,1.26,0l3.67,3a1,1,0,0,0,1.26,0l3.68-3a1,1,0,0,1,1.26,0l3.68,3A1,1,0,0,0,83,320l3.68-3A1,1,0,0,1,88,317l3.67,3a1,1,0,0,0,1.26,0l3.68-3a1,1,0,0,1,1.26,0l3.68,3a1,1,0,0,0,1.26,0l3.68-3a1,1,0,0,1,1.26,0l3.68,3a1,1,0,0,0,1.26,0l3.68-3a1,1,0,0,1,1.26,0l3.68,3a1,1,0,0,0,1.26,0l3.68-3a1,1,0,0,1,1.26,0l3.68,3a1,1,0,0,0,1.26,0l3.68-3a1,1,0,0,1,1.26,0l3.68,3a1,1,0,0,0,1.26,0l3.68-3a1,1,0,0,1,1.26,0l3.68,3a1,1,0,0,0,1.26,0l3.68-3a1,1,0,0,1,1.26,0l3.69,3a1,1,0,0,0,1.25,0l3.69-3a1,1,0,0,1,1.26,0l3.67,3a1,1,0,0,0,1.26,0l3.69-3a1,1,0,0,1,1.25,0l3.68,3a1,1,0,0,0,1.26,0l3.69-3a1,1,0,0,1,1.25,0l3.69,3a1,1,0,0,0,1.26,0l3.68-3a1,1,0,0,1,1.26,0l3.69,3a1,1,0,0,0,1.25,0l3.69-3a1,1,0,0,1,1.26,0l3.68,3a1,1,0,0,0,1.26,0l3.69-3a1,1,0,0,1,1.26,0l3.69,3a1,1,0,0,0,1.25,0l2.1-1.69a6,6,0,0,0,2.23-4.67v-228a5.9,5.9,0,0,0-3.78-5.56,11.35,11.35,0,0,1,0-21.26A5.93,5.93,0,0,0,225.68,53.22ZM27.81,69.71a1.52,1.52,0,0,1-.09.28.94.94,0,0,1-.14.26,1.3,1.3,0,0,1-.18.23,2,2,0,0,1-.23.18,1.61,1.61,0,0,1-.54.23l-.29,0a1.49,1.49,0,0,1-1.5-1.5,1.5,1.5,0,0,1,0-.29c0-.09.05-.19.08-.28a2.15,2.15,0,0,1,.14-.26,2.11,2.11,0,0,1,.19-.23,1,1,0,0,1,.23-.18,1.23,1.23,0,0,1,.25-.14,1.52,1.52,0,0,1,.28-.09,1.54,1.54,0,0,1,1.36.41,1.5,1.5,0,0,1,.41,1.36Zm5.24,1.2a1.5,1.5,0,1,1,1.5-1.49A1.5,1.5,0,0,1,33.05,70.91Zm6.72,0a1.5,1.5,0,1,1,1.5-1.49A1.5,1.5,0,0,1,39.77,70.91Zm6.72,0a1.5,1.5,0,1,1,0-3,1.5,1.5,0,1,1,0,3Zm6.71,0a1.5,1.5,0,1,1,1.5-1.49A1.5,1.5,0,0,1,53.2,70.91Zm6.72,0a1.5,1.5,0,1,1,1.5-1.49A1.5,1.5,0,0,1,59.92,70.91Zm6.71,0a1.5,1.5,0,1,1,1.5-1.49A1.5,1.5,0,0,1,66.63,70.91Zm6.72,0a1.5,1.5,0,1,1,1.5-1.49A1.5,1.5,0,0,1,73.35,70.91Zm6.72,0a1.5,1.5,0,1,1,0-3,1.5,1.5,0,1,1,0,3Zm6.71,0a1.5,1.5,0,1,1,1.5-1.49A1.5,1.5,0,0,1,86.78,70.91Zm6.72,0A1.5,1.5,0,1,1,95,69.42,1.5,1.5,0,0,1,93.5,70.91Zm6.71,0a1.5,1.5,0,1,1,1.51-1.49A1.5,1.5,0,0,1,100.21,70.91Zm6.72,0a1.5,1.5,0,1,1,1.5-1.49A1.5,1.5,0,0,1,106.93,70.91Zm6.72,0a1.5,1.5,0,1,1,0-3,1.5,1.5,0,1,1,0,3Zm6.71,0a1.5,1.5,0,1,1,1.5-1.49A1.5,1.5,0,0,1,120.36,70.91Zm6.72,0a1.5,1.5,0,1,1,1.5-1.49A1.5,1.5,0,0,1,127.08,70.91Zm6.71,0a1.5,1.5,0,1,1,1.5-1.49A1.49,1.49,0,0,1,133.79,70.91Zm6.72,0a1.5,1.5,0,1,1,1.5-1.49A1.5,1.5,0,0,1,140.51,70.91Zm6.72,0a1.5,1.5,0,1,1,0-3,1.5,1.5,0,1,1,0,3Zm6.71,0a1.5,1.5,0,1,1,1.5-1.49A1.5,1.5,0,0,1,153.94,70.91Zm6.72,0a1.5,1.5,0,1,1,1.5-1.49A1.5,1.5,0,0,1,160.66,70.91Zm6.71,0a1.5,1.5,0,1,1,1.51-1.49A1.5,1.5,0,0,1,167.37,70.91Zm6.72,0a1.5,1.5,0,1,1,1.5-1.49A1.5,1.5,0,0,1,174.09,70.91Zm6.72,0a1.5,1.5,0,1,1,0-3,1.5,1.5,0,1,1,0,3Zm6.71,0a1.5,1.5,0,1,1,1.5-1.49A1.5,1.5,0,0,1,187.52,70.91Zm6.72,0a1.5,1.5,0,1,1,1.5-1.49A1.5,1.5,0,0,1,194.24,70.91Zm6.72,0a1.5,1.5,0,1,1,1.49-1.49A1.5,1.5,0,0,1,201,70.91Zm7.77-.43a1.5,1.5,0,0,1-2.56-1.07,1.52,1.52,0,0,1,.44-1.06,1.57,1.57,0,0,1,2.12,0,1.51,1.51,0,0,1,0,2.13Z" fill="#e4f9dc"/>
<path d="M225.68,53.22V12.64A6,6,0,0,0,223.45,8l-2.08-1.69a1,1,0,0,0-1.26,0l-3.68,3a1,1,0,0,1-1.26,0l-3.68-3a1,1,0,0,0-1.26,0l-3.68,3a1,1,0,0,1-1.26,0l-3.68-3a1,1,0,0,0-1.26,0l-3.67,3a1,1,0,0,1-1.26,0l-3.68-3a1,1,0,0,0-1.26,0l-3.67,3a1,1,0,0,1-1.26,0l-3.68-3a1,1,0,0,0-1.25,0l-3.68,3a1,1,0,0,1-1.26,0l-3.68-3a1,1,0,0,0-1.26,0l-3.68,3a1,1,0,0,1-1.26,0l-3.67-3a1,1,0,0,0-1.26,0l-3.68,3a1,1,0,0,1-1.26,0l-3.68-3a1,1,0,0,0-1.26,0l-3.68,3a1,1,0,0,1-1.26,0l-3.67-3a1,1,0,0,0-1.26,0l-3.68,3a1,1,0,0,1-1.26,0l-3.68-3a1,1,0,0,0-1.26,0l-3.68,3a1,1,0,0,1-1.26,0l-3.68-3a1,1,0,0,0-1.26,0l-3.68,3a1,1,0,0,1-1.26,0l-3.68-3a1,1,0,0,0-1.26,0l-3.68,3a1,1,0,0,1-1.26,0l-3.68-3a1,1,0,0,0-1.26,0l-3.68,3a1,1,0,0,1-1.26,0L93,6.29a1,1,0,0,0-1.26,0L88,9.27a1,1,0,0,1-1.26,0l-3.68-3a1,1,0,0,0-1.26,0l-3.68,3a1,1,0,0,1-1.26,0l-3.69-3a1,1,0,0,0-1.25,0l-3.69,3a1,1,0,0,1-1.26,0l-3.67-3a1,1,0,0,0-1.26,0l-3.69,3a1,1,0,0,1-1.25,0l-3.68-3a1,1,0,0,0-1.26,0l-3.69,3a1,1,0,0,1-1.25,0l-3.69-3a1,1,0,0,0-1.26,0l-3.68,3a1,1,0,0,1-1.26,0l-3.69-3a1,1,0,0,0-1.25,0l-3.69,3a1,1,0,0,1-1.26,0l-3.68-3a1,1,0,0,0-1.26,0l-3.69,3a1,1,0,0,1-1.26,0l-3.69-3a1,1,0,0,0-1.25,0L10.55,8a6,6,0,0,0-2.23,4.66V53.22a5.93,5.93,0,0,0,3.78,5.57,11.35,11.35,0,0,1,0,21.26,5.9,5.9,0,0,0-3.78,5.56v228a6,6,0,0,0,2.23,4.67L12.63,320a1,1,0,0,0,1.26,0l3.68-3a1,1,0,0,1,1.26,0l3.68,3a1,1,0,0,0,1.26,0l3.68-3a1,1,0,0,1,1.26,0l3.68,3a1,1,0,0,0,1.26,0l3.67-3a1,1,0,0,1,1.26,0l3.68,3a1,1,0,0,0,1.26,0l3.67-3a1,1,0,0,1,1.26,0l3.68,3a1,1,0,0,0,1.25,0l3.68-3a1,1,0,0,1,1.26,0L62,320a1,1,0,0,0,1.26,0l3.68-3a1,1,0,0,1,1.26,0l3.67,3a1,1,0,0,0,1.26,0l3.68-3a1,1,0,0,1,1.26,0l3.68,3A1,1,0,0,0,83,320l3.68-3A1,1,0,0,1,88,317l3.67,3a1,1,0,0,0,1.26,0l3.68-3a1,1,0,0,1,1.26,0l3.68,3a1,1,0,0,0,1.26,0l3.68-3a1,1,0,0,1,1.26,0l3.68,3a1,1,0,0,0,1.26,0l3.68-3a1,1,0,0,1,1.26,0l3.68,3a1,1,0,0,0,1.26,0l3.68-3a1,1,0,0,1,1.26,0l3.68,3a1,1,0,0,0,1.26,0l3.68-3a1,1,0,0,1,1.26,0l3.68,3a1,1,0,0,0,1.26,0l3.68-3a1,1,0,0,1,1.26,0l3.68,3a1,1,0,0,0,1.26,0l3.68-3a1,1,0,0,1,1.26,0l3.69,3a1,1,0,0,0,1.25,0l3.69-3a1,1,0,0,1,1.26,0l3.67,3a1,1,0,0,0,1.26,0l3.69-3a1,1,0,0,1,1.25,0l3.68,3a1,1,0,0,0,1.26,0l3.69-3a1,1,0,0,1,1.25,0l3.69,3a1,1,0,0,0,1.26,0l3.68-3a1,1,0,0,1,1.26,0l3.69,3a1,1,0,0,0,1.25,0l3.69-3a1,1,0,0,1,1.26,0l3.68,3a1,1,0,0,0,1.26,0l3.69-3a1,1,0,0,1,1.26,0l3.69,3a1,1,0,0,0,1.25,0l2.1-1.69a6,6,0,0,0,2.23-4.67v-228a5.9,5.9,0,0,0-3.78-5.56,11.35,11.35,0,0,1,0-21.26A5.93,5.93,0,0,0,225.68,53.22ZM27.81,69.71a1.52,1.52,0,0,1-.09.28.94.94,0,0,1-.14.26,1.3,1.3,0,0,1-.18.23,2,2,0,0,1-.23.18,1.61,1.61,0,0,1-.54.23l-.29,0a1.49,1.49,0,0,1-1.5-1.5,1.5,1.5,0,0,1,0-.29c0-.09.05-.19.08-.28a2.15,2.15,0,0,1,.14-.26,2.11,2.11,0,0,1,.19-.23,1,1,0,0,1,.23-.18,1.23,1.23,0,0,1,.25-.14,1.52,1.52,0,0,1,.28-.09,1.54,1.54,0,0,1,1.36.41,1.5,1.5,0,0,1,.41,1.36Zm5.24,1.2a1.5,1.5,0,1,1,1.5-1.49A1.5,1.5,0,0,1,33.05,70.91Zm6.72,0a1.5,1.5,0,1,1,1.5-1.49A1.5,1.5,0,0,1,39.77,70.91Zm6.72,0a1.5,1.5,0,1,1,0-3,1.5,1.5,0,1,1,0,3Zm6.71,0a1.5,1.5,0,1,1,1.5-1.49A1.5,1.5,0,0,1,53.2,70.91Zm6.72,0a1.5,1.5,0,1,1,1.5-1.49A1.5,1.5,0,0,1,59.92,70.91Zm6.71,0a1.5,1.5,0,1,1,1.5-1.49A1.5,1.5,0,0,1,66.63,70.91Zm6.72,0a1.5,1.5,0,1,1,1.5-1.49A1.5,1.5,0,0,1,73.35,70.91Zm6.72,0a1.5,1.5,0,1,1,0-3,1.5,1.5,0,1,1,0,3Zm6.71,0a1.5,1.5,0,1,1,1.5-1.49A1.5,1.5,0,0,1,86.78,70.91Zm6.72,0A1.5,1.5,0,1,1,95,69.42,1.5,1.5,0,0,1,93.5,70.91Zm6.71,0a1.5,1.5,0,1,1,1.51-1.49A1.5,1.5,0,0,1,100.21,70.91Zm6.72,0a1.5,1.5,0,1,1,1.5-1.49A1.5,1.5,0,0,1,106.93,70.91Zm6.72,0a1.5,1.5,0,1,1,0-3,1.5,1.5,0,1,1,0,3Zm6.71,0a1.5,1.5,0,1,1,1.5-1.49A1.5,1.5,0,0,1,120.36,70.91Zm6.72,0a1.5,1.5,0,1,1,1.5-1.49A1.5,1.5,0,0,1,127.08,70.91Zm6.71,0a1.5,1.5,0,1,1,1.5-1.49A1.49,1.49,0,0,1,133.79,70.91Zm6.72,0a1.5,1.5,0,1,1,1.5-1.49A1.5,1.5,0,0,1,140.51,70.91Zm6.72,0a1.5,1.5,0,1,1,0-3,1.5,1.5,0,1,1,0,3Zm6.71,0a1.5,1.5,0,1,1,1.5-1.49A1.5,1.5,0,0,1,153.94,70.91Zm6.72,0a1.5,1.5,0,1,1,1.5-1.49A1.5,1.5,0,0,1,160.66,70.91Zm6.71,0a1.5,1.5,0,1,1,1.51-1.49A1.5,1.5,0,0,1,167.37,70.91Zm6.72,0a1.5,1.5,0,1,1,1.5-1.49A1.5,1.5,0,0,1,174.09,70.91Zm6.72,0a1.5,1.5,0,1,1,0-3,1.5,1.5,0,1,1,0,3Zm6.71,0a1.5,1.5,0,1,1,1.5-1.49A1.5,1.5,0,0,1,187.52,70.91Zm6.72,0a1.5,1.5,0,1,1,1.5-1.49A1.5,1.5,0,0,1,194.24,70.91Zm6.72,0a1.5,1.5,0,1,1,1.49-1.49A1.5,1.5,0,0,1,201,70.91Zm7.77-.43a1.5,1.5,0,0,1-2.56-1.07,1.52,1.52,0,0,1,.44-1.06,1.57,1.57,0,0,1,2.12,0,1.51,1.51,0,0,1,0,2.13Z" fill="none" stroke="#52b152" stroke-miterlimit="10"/>
<line x1="44" x2="129.42" y1="99.56" y2="99.56" fill="none" stroke="#52b152" stroke-miterlimit="10" stroke-width="8"/>
<line x1="35.75" x2="124.23" y1="32.97" y2="32.97" fill="none" stroke="#3c3c3c" stroke-miterlimit="10" stroke-width="5"/>
<line x1="35.5" x2="181.5" y1="44.31" y2="44.31" fill="none" stroke="#3c3c3c" stroke-miterlimit="10" stroke-width="3"/>
<line x1="44" x2="98.31" y1="114.35" y2="114.35" fill="none" stroke="#52b152" stroke-miterlimit="10" stroke-width="4"/>
<rect x="44" y="133.43" width="146" height="146" rx="8.39" ry="8.39" fill="#fff" stroke="#52b152" stroke-miterlimit="10"/>
<path d="M63.26,152.7H79v3.59H66.86v12.17h-3.6Zm0,91.7h3.6v12.17H79v3.6H63.26Zm30.86-81.84v21h-21v-21Zm-5.74,43.87H73.13v-5.74h5.74V195H73.13v-5.74h11.4V195H99.78v5.74H88.38Zm1-27.67V167.28H77.85v11.48ZM81.7,175h3.86v-3.86H81.7Zm18.08,8.57v-5.74h5.74v-5.74H99.78v-9.52H117v15.26h-5.74v5.74Zm0,5.65h5.74V195H99.78ZM111.26,195H117v11.48H99.78v-5.74h11.48Zm0-5.74H117v-5.65h-5.74Zm5.74-3.77h21v21H117Zm43.87,5.74v15.25h-5.74v-5.74h-5.74v5.74h-5.74V195h5.74V179.79h5.74v11.39Zm-27.68-.94H121.71v11.48h11.48Zm-3.77,7.62V194h-3.85v3.85ZM138,179.79h-5.74v-5.74h-5.74v5.74H117V162.56h15.25v5.75H138Zm5.66,0v-5.74h5.74v5.74Zm5.74-11.48v-5.75h11.48v17.23h-5.74V168.31Zm-5.74,0v-5.75H138v5.75ZM94.12,206.43v21h-21v-21ZM88.38,250.3H73.13v-5.74h5.74v-5.74H73.13v-5.74h11.4v5.74H99.78v5.74H88.38Zm1-27.67V211.15H77.85v11.48Zm-7.63-3.77h3.86V215H81.7Zm18.08,8.56v-5.74h5.74v-5.74H99.78v-9.51H117v15.25h-5.74v5.74Zm0,5.66h5.74v5.74H99.78Zm11.48,5.74H117V250.3H99.78v-5.74h11.48Zm0-5.74H117v-5.66h-5.74Zm49.61,17.22h-21v-21h21Zm-38.13-15.25v-11.4h5.74V238.9h5.74v11.4h-5.74v-5.74h-5.74v5.74H117V235.05Zm21.93,10.54h11.48V234.11H144.67Zm7.63-3.86v-3.85h-3.86v3.85Zm-12.42-29.56h5.74v-5.74h15.25v17.22h-9.51v-5.74h-5.74v5.74h-5.74Zm-11.4,11.48v-5.74h5.74v5.74Zm-5.74,20.91h11.48v5.74H117V238.82h5.74Zm0-17.14H117v5.66h5.74ZM155,152.7h15.77v15.76h-3.6V156.29H155Zm0,103.87h12.17V244.4h3.6v15.77H155Z" fill="#458e50"/>
<rect width="234" height="326" fill="none"/>
</symbol>
</defs>
<title>ingresso</title>
<g data-name="Layer 2">
<g data-name="Layer 2">
<circle cx="275" cy="275" r="275" fill="#e4f9dc" opacity=".3"/>
<circle cx="275" cy="275" r="167" fill="#e4f9dc" opacity=".7"/>
<use transform="translate(158 112)" width="234" height="326" data-name="ingresso" xlink:href="#a"/>
</g>
</g>
</svg>
