<?xml version="1.0" encoding="UTF-8"?>
<svg viewBox="0 0 550 550" xmlns="http://www.w3.org/2000/svg" xmlns:xlink="http://www.w3.org/1999/xlink">
<defs>
<symbol id="a" data-name="icon" viewBox="0 0 22.59 22.59">
<circle cx="11.29" cy="11.29" r="11.04" fill="none" stroke="#1c8fd9" stroke-miterlimit="10" stroke-width=".5"/>
<path d="M8.46,8.12a2.76,2.76,0,0,0,2.83,2.81,2.77,2.77,0,0,0,2.85-2.81,2.77,2.77,0,0,0-2.85-2.81A2.76,2.76,0,0,0,8.46,8.12Z" fill="#1c8fd9"/>
<path d="M16,16.15H6.63V14.07a6.85,6.85,0,0,1,9.34,0Z" fill="#1c8fd9"/>
</symbol>
<symbol id="b" data-name="lista" viewBox="0 0 234 326">
<rect width="234" height="326" fill="none"/>
<g opacity=".15" style="mix-blend-mode:multiply">
<path d="M229.68,314.51V40.66a4,4,0,0,0-1.18-2.83L205.34,14.67a4,4,0,0,0-2.83-1.18H18.32a6,6,0,0,0-6,6v295a6,6,0,0,0,6,6H223.68A6,6,0,0,0,229.68,314.51Z"/>
<path d="M229.68,314.51V40.66a4,4,0,0,0-1.18-2.83L205.34,14.67a4,4,0,0,0-2.83-1.18H18.32a6,6,0,0,0-6,6v295a6,6,0,0,0,6,6H223.68A6,6,0,0,0,229.68,314.51Z" fill="none" stroke="#000" stroke-miterlimit="10"/>
</g>
<path d="M225.68,310.51V36.66a4,4,0,0,0-1.18-2.83L201.34,10.67a4,4,0,0,0-2.83-1.18H14.32a6,6,0,0,0-6,6v295a6,6,0,0,0,6,6H219.68A6,6,0,0,0,225.68,310.51Z" fill="#deeaf3"/>
<path d="M225.68,310.51V36.66a4,4,0,0,0-1.18-2.83L201.34,10.67a4,4,0,0,0-2.83-1.18H14.32a6,6,0,0,0-6,6v295a6,6,0,0,0,6,6H219.68A6,6,0,0,0,225.68,310.51Z" fill="none" stroke="#1c8fd9" stroke-miterlimit="10"/>
<path d="M200.16,9.49V31a4,4,0,0,0,4,4h21.52" fill="none" stroke="#1c8fd9" stroke-miterlimit="10"/>
<use transform="translate(32.94 67.54)" width="22.59" height="22.59" data-name="icon" xlink:href="#a"/>
<line x1="66.17" x2="169.35" y1="78.83" y2="78.83" fill="none" stroke="#1c8fd9" stroke-miterlimit="10" stroke-width="8"/>
<line x1="66.17" x2="169.35" y1="78.83" y2="78.83" fill="none" stroke="#deeaf3" stroke-miterlimit="10" stroke-width="2"/>
<text transform="translate(190.94 85.41)" fill="#1c8fd9" font-family="Lets_Icons-Regular, Lets_Icons" font-size="18"></text>
<use transform="translate(32.94 101.61)" width="22.59" height="22.59" data-name="icon" xlink:href="#a"/>
<line x1="66.17" x2="149.93" y1="112.91" y2="112.91" fill="none" stroke="#1c8fd9" stroke-miterlimit="10" stroke-width="8"/>
<text transform="translate(190.94 119.49)" fill="#fff" font-family="Lets_Icons-Regular, Lets_Icons" font-size="18" opacity=".6"></text>
<use transform="translate(32.94 135.69)" width="22.59" height="22.59" data-name="icon" xlink:href="#a"/>
<line x1="66.17" x2="132.43" y1="146.98" y2="146.98" fill="none" stroke="#1c8fd9" stroke-miterlimit="10" stroke-width="8"/>
<text transform="translate(190.94 153.56)" fill="#1c8fd9" font-family="Lets_Icons-Regular, Lets_Icons" font-size="18"></text>
<use transform="translate(32.94 169.76)" width="22.59" height="22.59" data-name="icon" xlink:href="#a"/>
<line x1="66.17" x2="117" y1="181.06" y2="181.06" fill="none" stroke="#1c8fd9" stroke-miterlimit="10" stroke-width="8"/>
<text transform="translate(190.94 187.64)" fill="#fff" font-family="Lets_Icons-Regular, Lets_Icons" font-size="18" opacity=".6"></text>
<use transform="translate(32.94 203.84)" width="22.59" height="22.59" data-name="icon" xlink:href="#a"/>
<line x1="66.17" x2="139.43" y1="215.13" y2="215.13" fill="none" stroke="#1c8fd9" stroke-miterlimit="10" stroke-width="8"/>
<text transform="translate(190.94 221.71)" fill="#1c8fd9" font-family="Lets_Icons-Regular, Lets_Icons" font-size="18"></text>
<use transform="translate(32.94 237.91)" width="22.59" height="22.59" data-name="icon" xlink:href="#a"/>
<line x1="66.17" x2="144.93" y1="249.21" y2="249.21" fill="none" stroke="#1c8fd9" stroke-miterlimit="10" stroke-width="8"/>
<text transform="translate(190.94 255.78)" fill="#1c8fd9" font-family="Lets_Icons-Regular, Lets_Icons" font-size="18"></text>
<use transform="translate(32.94 271.99)" width="22.59" height="22.59" data-name="icon" xlink:href="#a"/>
<line x1="66.17" x2="137.43" y1="283.28" y2="283.28" fill="none" stroke="#1c8fd9" stroke-miterlimit="10" stroke-width="8"/>
<text transform="translate(190.94 289.86)" fill="#fff" font-family="Lets_Icons-Regular, Lets_Icons" font-size="18" opacity=".6"></text>
<line x1="66.17" x2="132.43" y1="146.98" y2="146.98" fill="none" stroke="#deeaf3" stroke-miterlimit="10" stroke-width="2"/>
<line x1="66.17" x2="139.43" y1="215.13" y2="215.13" fill="none" stroke="#deeaf3" stroke-miterlimit="10" stroke-width="2"/>
<line x1="66.17" x2="144.93" y1="249.21" y2="249.21" fill="none" stroke="#deeaf3" stroke-miterlimit="10" stroke-width="2"/>
<line x1="35.75" x2="124.23" y1="32.97" y2="32.97" fill="none" stroke="#3c3c3c" stroke-miterlimit="10" stroke-width="5"/>
<line x1="35.5" x2="181.5" y1="44.31" y2="44.31" fill="none" stroke="#3c3c3c" stroke-miterlimit="10" stroke-width="3"/>
</symbol>
</defs>
<title>lista</title>
<g data-name="Layer 2">
<g data-name="Layer 2">
<circle cx="275" cy="275" r="275" fill="#deeaf3" opacity=".2"/>
<circle cx="275" cy="275" r="167" fill="#deeaf3" opacity=".3"/>
<use transform="translate(158 112)" width="234" height="326" data-name="lista" xlink:href="#b"/>
</g>
</g>
</svg>
