<?xml version="1.0" encoding="UTF-8" standalone="no"?>
<svg width="161px" height="84px" viewBox="0 0 161 84" version="1.1" xmlns="http://www.w3.org/2000/svg" xmlns:xlink="http://www.w3.org/1999/xlink">
    <!-- Generator: Sketch 49.1 (51147) - http://www.bohemiancoding.com/sketch -->
    <title>TaxaBoleto</title>
    <desc>Created with Sketch.</desc>
    <defs></defs>
    <g id="Institucional" stroke="none" stroke-width="1" fill="none" fill-rule="evenodd">
        <g id="Lets-Desktop-NovaLandingPage" transform="translate(-272.000000, -3588.000000)" fill="#1C8FD9">
            <path d="M287.1,3618 C299.1,3618 304.1,3625.1 304.1,3638 C304.1,3650.2 299.6,3658.5 288.5,3658.5 C278.8,3658.5 272.9,3652.1 272.9,3641 L276.4,3641 C276.4,3650.3 280.7,3655.2 288.4,3655.2 C297.3,3655.2 300.6,3648.6 300.6,3638.1 C300.6,3628 297.6,3621.2 286.8,3621.2 L273.9,3621.2 L273.9,3620.9 L276.4,3589 L301.4,3589 L301.4,3592.2 L279.3,3592.2 L277.4,3616.6 L277.2,3617.8 L277.2,3618.1 L278.6,3618 L287.1,3618 Z M314,3647 L319,3647 L319,3656.1 C319,3662.1 317.3,3667.3 314.7,3671.5 L311.7,3671.5 L311.7,3670.5 C314.1,3666.8 315.5,3662.8 315.8,3658 L314,3658 L314,3647 Z M358.8,3598.8 C360.9,3605 360.6,3613.6 360.6,3625.4 C360.6,3651.5 355,3658.5 344.7,3658.5 C335.9,3658.5 330.5,3651.9 330.5,3639.6 L334,3639.6 C334,3650.4 338,3655.3 344.8,3655.3 C353.9,3655.3 357.1,3646.3 357.3,3625.4 L357.6,3623.4 L357.6,3621.2 L357.3,3621.2 C355.7,3626.1 351.1,3629.9 344.5,3629.9 C334.2,3629.9 329.7,3620.5 329.7,3609.1 C329.7,3597.8 334.1,3588.5 345.2,3588.5 C351.4,3588.5 356.4,3591.7 358.8,3598.8 Z M345.3,3626.6 C353.8,3626.6 357,3619.1 357,3610.9 C357,3599.3 353.2,3591.7 345.2,3591.7 C336.2,3591.7 333.2,3599.4 333.2,3609.2 C333.2,3619.1 336.2,3626.6 345.3,3626.6 Z M401.2,3598.8 C403.3,3605 403,3613.6 403,3625.4 C403,3651.5 397.4,3658.5 387.1,3658.5 C378.3,3658.5 372.9,3651.9 372.9,3639.6 L376.4,3639.6 C376.4,3650.4 380.4,3655.3 387.2,3655.3 C396.3,3655.3 399.5,3646.3 399.7,3625.4 L400,3623.4 L400,3621.2 L399.7,3621.2 C398.1,3626.1 393.5,3629.9 386.9,3629.9 C376.6,3629.9 372.1,3620.5 372.1,3609.1 C372.1,3597.8 376.5,3588.5 387.6,3588.5 C393.8,3588.5 398.8,3591.7 401.2,3598.8 Z M387.7,3626.6 C396.2,3626.6 399.4,3619.1 399.4,3610.9 C399.4,3599.3 395.6,3591.7 387.6,3591.7 C378.6,3591.7 375.6,3599.4 375.6,3609.2 C375.6,3619.1 378.6,3626.6 387.7,3626.6 Z M415.75,3638.55 C412.25,3638.55 410.6,3635.9 410.6,3630.9 C410.6,3625.85 412.25,3623.25 415.75,3623.25 C419.25,3623.25 420.9,3625.85 420.9,3630.9 C420.9,3635.9 419.25,3638.55 415.75,3638.55 Z M414.15,3658 L414.15,3653.45 C414.15,3647.7 415.3,3645.6 420.6,3640.2 C425.6,3635.1 426.55,3633.4 426.55,3628.15 L426.55,3623.5 L428.9,3623.5 L428.9,3628.05 C428.9,3633.8 427.75,3636 422.5,3641.35 C417.45,3646.4 416.5,3648.1 416.5,3653.35 L416.5,3658 L414.15,3658 Z M415.75,3636.55 C417.95,3636.55 418.8,3634.6 418.8,3630.9 C418.8,3627.15 417.95,3625.25 415.75,3625.25 C413.55,3625.25 412.65,3627.15 412.65,3630.9 C412.65,3634.6 413.55,3636.55 415.75,3636.55 Z M427.3,3658.3 C423.8,3658.3 422.15,3655.65 422.15,3650.65 C422.15,3645.6 423.8,3643 427.3,3643 C430.8,3643 432.45,3645.6 432.45,3650.65 C432.45,3655.65 430.8,3658.3 427.3,3658.3 Z M427.3,3656.3 C429.5,3656.3 430.35,3654.35 430.35,3650.65 C430.35,3646.9 429.5,3645 427.3,3645 C425.1,3645 424.2,3646.9 424.2,3650.65 C424.2,3654.35 425.1,3656.3 427.3,3656.3 Z" id="TaxaBoleto"></path>
        </g>
    </g>
</svg>