<?xml version="1.0" encoding="UTF-8" standalone="no"?>
<svg width="145px" height="77px" viewBox="0 0 145 77" version="1.1" xmlns="http://www.w3.org/2000/svg" xmlns:xlink="http://www.w3.org/1999/xlink">
<g id="Institucional" stroke="none" stroke-width="1" fill="none" fill-rule="evenodd">
<g id="Lets-Desktop-NovaLandingPage" transform="translate(-991.000000, -3588.000000)" fill="#52B152">
<path d="M1007.375,3648.85 L1007.375,3654.5 C1007.375,3655.8 1007.475,3656.95 1007.925,3657.7 L1007.925,3658 L1005.375,3658 C1005.025,3657.3 1004.825,3656.05 1004.825,3654.55 L1004.825,3649 C1004.825,3645.05 1002.825,3642.35 996.875,3642.35 L993.875,3642.35 L993.875,3658 L991.325,3658 L991.325,3623.5 L997.025,3623.5 C1005.075,3623.5 1007.975,3627.25 1007.975,3632.45 C1007.975,3636.95 1005.825,3640.4 1000.825,3640.9 L1000.375,3640.85 L1000.375,3641.05 C1005.525,3641.55 1007.375,3644.75 1007.375,3648.85 Z M993.875,3640.05 L996.875,3640.05 C1003.225,3640.05 1005.325,3637.15 1005.325,3632.85 C1005.325,3628.6 1003.225,3625.75 996.875,3625.75 L993.875,3625.75 L993.875,3640.05 Z M1031.825,3648.5 C1031.825,3653.1 1028.575,3656.2 1023.725,3656.55 L1023.825,3663.45 L1021.575,3663.45 L1021.725,3656.55 C1016.875,3656.15 1013.675,3652.85 1013.675,3647.6 L1016.225,3647.6 C1016.225,3651.95 1018.875,3654.35 1022.775,3654.35 C1026.575,3654.35 1029.125,3652.1 1029.125,3648.6 C1029.125,3645.8 1027.525,3643.95 1023.675,3642.3 L1019.875,3640.65 C1015.825,3638.9 1014.025,3636 1014.025,3632.55 C1014.025,3628.1 1017.175,3625.1 1021.675,3624.65 L1021.575,3617.3 L1023.825,3617.3 L1023.725,3624.65 C1028.275,3625 1031.275,3628.15 1031.225,3633.45 L1028.675,3633.45 C1028.675,3628.95 1026.275,3626.9 1022.775,3626.9 C1019.125,3626.9 1016.725,3629.1 1016.725,3632.45 C1016.725,3635.05 1018.175,3637.15 1021.325,3638.55 L1025.175,3640.2 C1029.675,3642.15 1031.825,3644.95 1031.825,3648.5 Z M1058.125,3658.5 C1044.525,3658.5 1041.225,3646.4 1041.225,3623.4 C1041.225,3600.4 1044.525,3588.5 1058.125,3588.5 C1072.125,3588.5 1075.425,3600.4 1075.425,3623.4 C1075.425,3646.4 1072.125,3658.5 1058.125,3658.5 Z M1058.125,3655.2 C1069.425,3655.2 1071.825,3644.2 1071.825,3623.4 C1071.825,3602.8 1069.425,3591.8 1058.125,3591.8 C1047.225,3591.8 1044.825,3602.8 1044.825,3623.4 C1044.825,3644.2 1047.225,3655.2 1058.125,3655.2 Z M1085.425,3651.95 L1088.625,3651.95 L1088.625,3656.8 C1088.625,3660 1087.575,3662.7 1086.075,3664.8 L1084.225,3664.8 L1084.225,3664.2 C1085.575,3662.4 1086.425,3660.4 1086.625,3658 L1085.425,3658 L1085.425,3651.95 Z M1103.525,3658.3 C1096.725,3658.3 1094.875,3652.35 1094.875,3640.7 C1094.875,3629.05 1096.725,3623.2 1103.525,3623.2 C1110.325,3623.2 1112.175,3629.05 1112.175,3640.7 C1112.175,3652.35 1110.325,3658.3 1103.525,3658.3 Z M1103.525,3655.8 C1108.475,3655.8 1109.525,3650.65 1109.525,3640.75 C1109.525,3630.8 1108.475,3625.7 1103.525,3625.7 C1098.575,3625.7 1097.525,3630.8 1097.525,3640.75 C1097.525,3650.7 1098.575,3655.8 1103.525,3655.8 Z M1127.025,3658.3 C1120.225,3658.3 1118.375,3652.35 1118.375,3640.7 C1118.375,3629.05 1120.225,3623.2 1127.025,3623.2 C1133.825,3623.2 1135.675,3629.05 1135.675,3640.7 C1135.675,3652.35 1133.825,3658.3 1127.025,3658.3 Z M1127.025,3655.8 C1131.975,3655.8 1133.025,3650.65 1133.025,3640.75 C1133.025,3630.8 1131.975,3625.7 1127.025,3625.7 C1122.075,3625.7 1121.025,3630.8 1121.025,3640.75 C1121.025,3650.7 1122.075,3655.8 1127.025,3655.8 Z" id="TaxaIngresso"></path>
</g>
</g>
</svg>
