<?xml version="1.0" encoding="UTF-8" standalone="no"?>
<svg width="165px" height="84px" viewBox="0 0 165 84" version="1.1" xmlns="http://www.w3.org/2000/svg" xmlns:xlink="http://www.w3.org/1999/xlink">
<g id="Institucional" stroke="none" stroke-width="1" fill="none" fill-rule="evenodd">
<g id="Lets-Desktop-NovaLandingPage" transform="translate(-555.000000, -3588.000000)" fill="#1C8FD9">
<path d="M579.2,3621.7 C587.3,3624.1 590.3,3631.9 590.3,3639.6 C590.3,3649.7 585.2,3658.5 573,3658.5 C560.8,3658.5 555.7,3649.7 555.7,3639.6 C555.7,3631.9 558.7,3624.1 566.8,3621.7 L566.8,3621.5 C561.1,3619.6 556.9,3613.3 556.9,3605.3 C556.9,3597.1 561.3,3588.5 573,3588.5 C584.7,3588.5 589.1,3597.1 589.1,3605.3 C589.1,3613.3 584.9,3619.6 579.2,3621.5 L579.2,3621.7 Z M560.3,3605.8 C560.3,3612.5 563.7,3619.8 572.9,3619.8 C582.1,3619.8 585.6,3612.5 585.6,3605.8 C585.6,3599 582.1,3591.7 572.9,3591.7 C563.7,3591.7 560.3,3599 560.3,3605.8 Z M573,3655.2 C582.1,3655.2 586.8,3648.4 586.8,3639.2 C586.8,3630.1 582.1,3623.4 573,3623.4 C563.8,3623.4 559.1,3630.1 559.1,3639.2 C559.1,3648.4 563.8,3655.2 573,3655.2 Z M600.9,3647 L605.9,3647 L605.9,3656.1 C605.9,3662.1 604.2,3667.3 601.6,3671.5 L598.6,3671.5 L598.6,3670.5 C601,3666.8 602.4,3662.8 602.7,3658 L600.9,3658 L600.9,3647 Z M645.7,3598.8 C647.8,3605 647.5,3613.6 647.5,3625.4 C647.5,3651.5 641.9,3658.5 631.6,3658.5 C622.8,3658.5 617.4,3651.9 617.4,3639.6 L620.9,3639.6 C620.9,3650.4 624.9,3655.3 631.7,3655.3 C640.8,3655.3 644,3646.3 644.2,3625.4 L644.5,3623.4 L644.5,3621.2 L644.2,3621.2 C642.6,3626.1 638,3629.9 631.4,3629.9 C621.1,3629.9 616.6,3620.5 616.6,3609.1 C616.6,3597.8 621,3588.5 632.1,3588.5 C638.3,3588.5 643.3,3591.7 645.7,3598.8 Z M632.2,3626.6 C640.7,3626.6 643.9,3619.1 643.9,3610.9 C643.9,3599.3 640.1,3591.7 632.1,3591.7 C623.1,3591.7 620.1,3599.4 620.1,3609.2 C620.1,3619.1 623.1,3626.6 632.2,3626.6 Z M688.1,3598.8 C690.2,3605 689.9,3613.6 689.9,3625.4 C689.9,3651.5 684.3,3658.5 674,3658.5 C665.2,3658.5 659.8,3651.9 659.8,3639.6 L663.3,3639.6 C663.3,3650.4 667.3,3655.3 674.1,3655.3 C683.2,3655.3 686.4,3646.3 686.6,3625.4 L686.9,3623.4 L686.9,3621.2 L686.6,3621.2 C685,3626.1 680.4,3629.9 673.8,3629.9 C663.5,3629.9 659,3620.5 659,3609.1 C659,3597.8 663.4,3588.5 674.5,3588.5 C680.7,3588.5 685.7,3591.7 688.1,3598.8 Z M674.6,3626.6 C683.1,3626.6 686.3,3619.1 686.3,3610.9 C686.3,3599.3 682.5,3591.7 674.5,3591.7 C665.5,3591.7 662.5,3599.4 662.5,3609.2 C662.5,3619.1 665.5,3626.6 674.6,3626.6 Z M702.65,3638.55 C699.15,3638.55 697.5,3635.9 697.5,3630.9 C697.5,3625.85 699.15,3623.25 702.65,3623.25 C706.15,3623.25 707.8,3625.85 707.8,3630.9 C707.8,3635.9 706.15,3638.55 702.65,3638.55 Z M701.05,3658 L701.05,3653.45 C701.05,3647.7 702.2,3645.6 707.5,3640.2 C712.5,3635.1 713.45,3633.4 713.45,3628.15 L713.45,3623.5 L715.8,3623.5 L715.8,3628.05 C715.8,3633.8 714.65,3636 709.4,3641.35 C704.35,3646.4 703.4,3648.1 703.4,3653.35 L703.4,3658 L701.05,3658 Z M702.65,3636.55 C704.85,3636.55 705.7,3634.6 705.7,3630.9 C705.7,3627.15 704.85,3625.25 702.65,3625.25 C700.45,3625.25 699.55,3627.15 699.55,3630.9 C699.55,3634.6 700.45,3636.55 702.65,3636.55 Z M714.2,3658.3 C710.7,3658.3 709.05,3655.65 709.05,3650.65 C709.05,3645.6 710.7,3643 714.2,3643 C717.7,3643 719.35,3645.6 719.35,3650.65 C719.35,3655.65 717.7,3658.3 714.2,3658.3 Z M714.2,3656.3 C716.4,3656.3 717.25,3654.35 717.25,3650.65 C717.25,3646.9 716.4,3645 714.2,3645 C712,3645 711.1,3646.9 711.1,3650.65 C711.1,3654.35 712,3656.3 714.2,3656.3 Z" id="TaxaCartao"></path>
</g>
</g>
</svg>
